<svg id="logo" xmlns="http://www.w3.org/2000/svg" viewBox="0 0 100 25"><defs><style>.cls-1{fill:#fff;}</style></defs><polygon class="cls-1" points="72.34 22.98 74.04 14.25 100 8.26 72.34 22.98"/><polygon class="cls-1" points="28.17 2.02 26.47 10.76 0 16.88 28.17 2.02"/><polygon class="cls-1" points="38.74 22.09 46.32 20.34 46.88 17.43 43.09 18.31 43.66 15.4 47.45 14.53 48.01 11.62 44.23 12.49 44.79 9.59 48.58 8.71 49.14 5.82 41.56 7.57 38.74 22.09"/><polygon class="cls-1" points="48.84 19.76 52.63 18.89 53.76 13.07 56.29 12.48 55.16 18.3 58.95 17.43 61.77 2.91 57.98 3.78 56.85 9.58 54.33 10.16 55.46 4.37 51.67 5.24 48.84 19.76"/><polygon class="cls-1" points="61.47 16.85 65.26 15.97 66.64 8.83 67.79 15.39 71.58 14.52 74.39 0 70.61 0.87 69.24 7.85 68.08 1.46 64.3 2.33 61.47 16.85"/><path class="cls-1" d="M34.44,13.21c.18-1-.17-1.19-1-1l-1.26.3-1.69,8.71,1.26-.29c.84-.19,1.26-.3,1.45-1.26Zm.39-4.09c2.53-.58,3.83,1,3.46,2.89l-1.65,8.46c-.42,2.2-1.69,2.49-5.06,3.27L26.11,25l2.83-14.52Z"/></svg>